HIERARCHY
ROOT Pelvis
{
	OFFSET 0.000000 0.000000 0.000000
	CHANNELS 6 Xposition Yposition Zposition Xrotation Yrotation Zrotation
	JOINT LeftUpLeg_virtual
	{
		OFFSET 0.000000 0.000000 0.000000
		CHANNELS 3 Xrotation Yrotation Zrotation
		JOINT LeftUpLeg
		{
			OFFSET 18.735201 -5.666702 -4.541200
			CHANNELS 3 Xrotation Yrotation Zrotation
			JOINT LeftLeg
			{
				OFFSET -0.021200 -31.938179 0.493100
				CHANNELS 3 Xrotation Yrotation Zrotation
				JOINT LeftFoot
				{
					OFFSET 0.021200 -31.938179 -4.336299
					CHANNELS 3 Xrotation Yrotation Zrotation
					JOINT LeftToeBase
					{
						OFFSET 0.943001 -26.722000 15.023500
						CHANNELS 3 Xrotation Yrotation Zrotation
						End Site
						{
							OFFSET 0 0 0
						}
					}
				}
			}
		}
	}
	JOINT RightUpLeg_virtual
	{
		OFFSET 0.000000 0.000000 0.000000
		CHANNELS 3 Xrotation Yrotation Zrotation
		JOINT RightUpLeg
		{
			OFFSET -18.735201 -5.666702 -4.541200
			CHANNELS 3 Xrotation Yrotation Zrotation
			JOINT RightLeg
			{
				OFFSET 0.018946 -31.938133 0.493100
				CHANNELS 3 Xrotation Yrotation Zrotation
				JOINT RightFoot
				{
					OFFSET -0.018946 -31.938126 -4.336299
					CHANNELS 3 Xrotation Yrotation Zrotation
					JOINT RightToeBase
					{
						OFFSET -0.943001 -26.722004 15.023500
						CHANNELS 3 Xrotation Yrotation Zrotation
						End Site
						{
							OFFSET 0 0 0
						}
					}
				}
			}
		}
	}
	JOINT Hips_virtual
	{
		OFFSET 0.000000 0.000000 0.000000
		CHANNELS 3 Xrotation Yrotation Zrotation
		JOINT Hips
		{
			OFFSET -0.000000 -0.000000 -0.000000
			CHANNELS 3 Xrotation Yrotation Zrotation
			JOINT Spine
			{
				OFFSET 0.000000 10.199997 -0.299500
				CHANNELS 3 Xrotation Yrotation Zrotation
				JOINT Spine1
				{
					OFFSET 0.000000 11.900002 -1.516600
					CHANNELS 3 Xrotation Yrotation Zrotation
					JOINT Spine2
					{
						OFFSET 0.000000 13.600006 -2.842500
						CHANNELS 3 Xrotation Yrotation Zrotation
						JOINT Neck_virtual
						{
							OFFSET 0.000000 0.000000 0.000000
							CHANNELS 3 Xrotation Yrotation Zrotation
							JOINT Neck
							{
								OFFSET 0.000000 9.624100 -2.890100
								CHANNELS 3 Xrotation Yrotation Zrotation
								JOINT Head
								{
									OFFSET 0.000000 14.068802 -1.351900
									CHANNELS 3 Xrotation Yrotation Zrotation
									End Site
									{
										OFFSET 0 0 0
									}
								}
							}
						}
						JOINT LeftShoulder_virtual
						{
							OFFSET 0.000000 0.000000 0.000000
							CHANNELS 3 Xrotation Yrotation Zrotation
							JOINT LeftShoulder
							{
								OFFSET 15.263000 10.923401 -0.547700
								CHANNELS 3 Xrotation Yrotation Zrotation
								JOINT LeftArm
								{
									OFFSET 25.438599 -2.830597 -13.032500
									CHANNELS 3 Xrotation Yrotation Zrotation
									JOINT LeftForeArm
									{
										OFFSET 29.960503 0.000000 0.000000
										CHANNELS 3 Xrotation Yrotation Zrotation
										JOINT LeftHand
										{
											OFFSET 27.849251 0.000000 0.000000
											CHANNELS 3 Xrotation Yrotation Zrotation
											End Site
											{
												OFFSET 0 0 0
											}
										}
									}
								}
							}
						}
						JOINT RightShoulder_virtual
						{
							OFFSET 0.000000 0.000000 0.000000
							CHANNELS 3 Xrotation Yrotation Zrotation
							JOINT RightShoulder
							{
								OFFSET -15.263000 10.923401 -0.547700
								CHANNELS 3 Xrotation Yrotation Zrotation
								JOINT RightArm
								{
									OFFSET -25.438599 -2.830597 -13.032500
									CHANNELS 3 Xrotation Yrotation Zrotation
									JOINT RightForeArm
									{
										OFFSET -29.960503 0.000000 0.000000
										CHANNELS 3 Xrotation Yrotation Zrotation
										JOINT RightHand
										{
											OFFSET -27.849251 0.000000 0.000000
											CHANNELS 3 Xrotation Yrotation Zrotation
											End Site
											{
												OFFSET 0 0 0
											}
										}
									}
								}
							}
						}
					}
				}
			}
		}
	}
}
MOTION
Frames: 4
Frame Time: 0.03333333
-1.573732 86.462944 0.346592 0.000000 0.000000 0.000000 6.152887 -82.461079 8.332948 -27.081200 26.570682 35.113128 32.256910 -10.654040 1.044579 -7.678879 5.715711 -22.149147 0.000000 0.000000 0.000000 6.152887 -82.461079 8.332948 -30.800178 -3.889128 -30.453573 28.996113 4.853173 -5.129772 -2.452356 7.430915 27.661015 0.000000 0.000000 0.000000 6.152887 -82.461079 8.332948 0.000000 0.000000 0.000000 7.202271 -5.492148 -4.646853 3.166861 -8.381593 -0.481523 0.000000 0.000000 0.000000 3.223304 -8.349602 -0.164300 -2.316565 1.562455 1.280122 0.000000 0.000000 0.000000 3.223304 -8.349602 -0.164300 5.057006 3.013256 13.147425 -41.358431 14.579297 -0.628192 0.401512 -12.314955 -0.190102 0.000000 0.000000 0.000000 3.223304 -8.349602 -0.164300 -0.725738 3.118712 -19.460490 -43.907649 41.643127 39.880744 179.727590 45.001651 -178.904142 0.000000 0.000000 0.000000 
-1.651326 86.462585 0.357620 0.000000 0.000000 0.000000 5.940855 -82.303670 8.160705 -26.996555 26.522065 35.017263 32.163026 -10.696848 1.038494 -7.649108 5.698338 -22.154366 0.000000 0.000000 0.000000 5.940855 -82.303670 8.160705 -30.624082 -3.801008 -30.499926 29.142040 4.658361 -5.169907 -2.659630 7.341886 27.762825 0.000000 0.000000 0.000000 5.940855 -82.303670 8.160705 0.000000 -0.000001 0.000000 7.171428 -5.563133 -4.714980 3.193037 -8.441199 -0.434101 0.000000 0.000000 0.000000 3.256760 -8.414371 -0.119542 -2.310005 1.565275 1.286952 0.000000 0.000000 0.000000 3.256760 -8.414371 -0.119542 4.942451 3.372611 13.150520 -41.216800 14.374473 -0.890732 0.408200 -12.293959 -0.188314 0.000000 0.000000 0.000000 3.256760 -8.414371 -0.119542 -0.667744 3.236926 -19.377593 -43.532508 41.170536 39.610982 179.791780 44.675420 -178.975818 0.000000 0.000000 0.000000 
-1.728224 86.461349 0.368439 0.000000 0.000000 0.000000 5.744484 -82.148393 8.003722 -26.917663 26.477674 34.925558 32.073540 -10.774588 1.030460 -7.621918 5.711419 -22.151354 0.000000 0.000000 0.000000 5.744484 -82.148393 8.003722 -30.450865 -3.713334 -30.545671 29.287394 4.458420 -5.209066 -2.865307 7.260659 27.864547 0.000000 0.000000 0.000000 5.744484 -82.148393 8.003722 0.000000 0.000000 0.000000 7.144076 -5.631117 -4.792303 3.217082 -8.497973 -0.386806 0.000000 0.000000 0.000000 3.288896 -8.475683 -0.075522 -2.303528 1.568191 1.293808 0.000000 0.000000 0.000000 3.288896 -8.475683 -0.075522 4.841603 3.655641 13.158283 -41.084076 14.218010 -1.098240 0.414898 -12.271947 -0.186576 0.000000 0.000000 0.000000 3.288896 -8.475683 -0.075522 -0.606760 3.367928 -19.287855 -43.123338 40.674996 39.333000 179.850970 44.352069 -179.040445 0.000000 0.000000 0.000000 
-1.804157 86.458649 0.378914 0.000000 0.000000 0.000000 5.559303 -81.996366 7.857742 -26.845507 26.436408 34.840826 31.990519 -10.836935 1.023354 -7.597262 5.705314 -22.151845 0.000000 0.000000 0.000000 5.559303 -81.996366 7.857742 -30.283297 -3.625492 -30.590597 29.436630 4.263764 -5.247371 -3.070084 7.178572 27.964644 0.000000 0.000000 0.000000 5.559303 -81.996366 7.857742 0.000000 0.000000 0.000000 7.121734 -5.699608 -4.873358 3.238113 -8.558120 -0.333730 0.000000 0.000000 0.000000 3.319804 -8.538072 -0.025668 -2.297096 1.570927 1.300661 0.000000 0.000000 0.000000 3.319804 -8.538072 -0.025668 4.748876 3.895332 13.168652 -40.954733 14.107551 -1.279146 0.421504 -12.251557 -0.184833 0.000000 0.000000 0.000000 3.319804 -8.538072 -0.025668 -0.544066 3.510612 -19.192393 -42.738423 40.179462 39.071240 179.924135 44.064856 -179.112668 0.000000 0.000000 0.000000 
